<?xml version="1.0" standalone="no"?>
<!DOCTYPE svg PUBLIC "-//W3C//DTD SVG 20010904//EN"
 "http://www.w3.org/TR/2001/REC-SVG-20010904/DTD/svg10.dtd">
<svg version="1.0" xmlns="http://www.w3.org/2000/svg"
 width="512.000000pt" height="512.000000pt" viewBox="0 0 512.000000 512.000000"
 preserveAspectRatio="xMidYMid meet">
<metadata>
Created by potrace 1.14, written by Peter Selinger 2001-2017
</metadata>
<g transform="translate(0.000000,512.000000) scale(0.100000,-0.100000)"
fill="#000000" stroke="none">
<path d="M4055 4681 c-54 -25 -190 -121 -508 -358 -151 -112 -203 -124 -332
-77 -200 74 -366 107 -595 119 -171 9 -169 11 -131 -125 17 -58 37 -138 46
-177 9 -40 21 -75 26 -78 5 -3 82 -7 171 -9 190 -4 299 -27 444 -95 48 -23 96
-41 107 -41 13 0 121 100 306 284 271 268 342 329 362 309 5 -5 -5 -31 -21
-58 -21 -38 -922 -1169 -971 -1219 -5 -6 -29 2 -61 20 -47 26 -63 29 -138 29
-73 0 -92 -4 -136 -27 -170 -89 -206 -311 -74 -461 l29 -34 -177 -219 c-262
-326 -295 -364 -310 -364 -20 0 -153 141 -208 220 -26 38 -54 70 -61 70 -24 0
-914 -450 -920 -466 -13 -33 115 -272 225 -420 32 -44 102 -128 155 -187 54
-59 97 -111 97 -116 0 -10 -32 -55 -267 -376 -214 -293 -246 -361 -191 -399
32 -23 50 -20 131 20 71 36 129 76 464 326 171 128 227 158 287 158 17 0 76
-16 131 -36 668 -234 1372 -85 1869 395 456 443 642 1078 496 1697 -34 148
-69 242 -141 389 -83 168 -169 292 -306 437 -81 86 -103 115 -103 137 0 22 50
97 206 308 114 153 215 297 225 321 24 55 24 94 1 115 -26 24 -58 21 -127 -12z
m-1314 -2098 c110 -103 208 -270 250 -428 17 -61 22 -110 22 -205 1 -146 -15
-221 -74 -348 -143 -310 -409 -476 -759 -475 -140 1 -237 21 -349 73 -35 17
-68 30 -73 30 -6 0 -111 -99 -235 -220 -243 -239 -321 -306 -335 -292 -24 24
0 56 1092 1410 223 276 406 502 408 502 2 0 25 -21 53 -47z"/>
<path d="M2195 4330 c-148 -32 -279 -79 -423 -151 -132 -65 -272 -153 -279
-174 -5 -15 422 -355 444 -355 11 0 37 18 58 41 93 95 252 191 398 238 48 16
67 27 67 39 -1 9 -22 98 -48 197 l-47 180 -40 2 c-22 1 -80 -7 -130 -17z"/>
<path d="M1289 3833 c-161 -164 -284 -348 -374 -557 -42 -100 -63 -165 -54
-166 241 -23 815 -67 819 -64 3 3 14 54 26 112 23 118 65 226 125 325 21 36
39 71 39 76 0 16 -448 371 -468 371 -9 0 -60 -44 -113 -97z"/>
<path d="M831 3006 c-7 -8 -22 -63 -33 -123 -28 -145 -30 -419 -5 -580 24
-150 57 -267 78 -271 23 -4 898 434 906 453 3 9 -4 37 -15 63 -36 83 -63 194
-69 285 -3 48 -11 94 -17 102 -8 11 -95 21 -376 45 -201 16 -386 32 -411 36
-34 4 -49 1 -58 -10z"/>
</g>
</svg>
